<svg xmlns="http://www.w3.org/2000/svg" width="132.545" height="54" viewBox="0 0 132.545 54">
  <g id="g10" transform="translate(-65.281 688.113)">
    <g id="g12" transform="translate(65.281 -688.113)">
      <path id="path74" d="M1221.476-408.715a6.539,6.539,0,0,0,2.188-.97l-6.737-.057a5.705,5.705,0,0,0,.637.485l-4.521,2.91,2.318,2.511,4.811-4.48,4.782,4.48.957-1.141-4.435-3.738" transform="translate(-1095.848 438.041)" fill="#fff"/>
      <path id="path76" d="M691.728-549.384a.06.06,0,0,1-.044-.014C691.675-549.408,691.689-549.4,691.728-549.384Zm8.694-20.458.145.285q.116.257.058.257h-5.071a1.1,1.1,0,0,0,.145.171l.145.143q.406.485.826,1a6.022,6.022,0,0,1,.71,1.084,1.091,1.091,0,0,1,.073.314.427.427,0,0,1-.1.314,1.223,1.223,0,0,1-.594.471q-.391.157-.739.271-.638.172-1.275.286a9.262,9.262,0,0,0-1.246.314,6.223,6.223,0,0,0-1.043.456,1.9,1.9,0,0,0-.782.77,3.778,3.778,0,0,1,.623-.114l.623-.057q.406,0,.84.043a2.17,2.17,0,0,1,.811.243,3.152,3.152,0,0,1,.8.457q.362.285.71.6.406.343.768.685t.71.742q.116.143.217.286t.218.285a1.973,1.973,0,0,1,.29,1.156,4.9,4.9,0,0,1-.2,1.213,12.369,12.369,0,0,1-.536,1.327,11.055,11.055,0,0,1-.71,1.27q-.029.057-.261-.114t-.493-.385q-.261-.214-.493-.414t-.261-.228q-.261-.228-.493-.471t-.464-.5a2.839,2.839,0,0,0-.188-.214.733.733,0,0,1-.116-.143q-.043-.071-.014-.1.319-.542.594-1.07a8.591,8.591,0,0,0,.478-1.1q.087-.228.159-.485t.13-.485a5.725,5.725,0,0,0-1.42.285,5.192,5.192,0,0,0-1.913,1.284,6.833,6.833,0,0,0-1.116,1.512,7.5,7.5,0,0,0-.681,1.741,8.639,8.639,0,0,0-.261,1.883,10.416,10.416,0,0,0,.116,1.912q.115.485.246.941a5.769,5.769,0,0,0,.333.885,3.767,3.767,0,0,0,.435.827.877.877,0,0,0,.058.1,1.018,1.018,0,0,1,.058.1.672.672,0,0,1,.087.143.654.654,0,0,1,.087.143c.039.019.082.038.131.057a.865.865,0,0,1,.159.086.025.025,0,0,0,.029.028.929.929,0,0,1,.1.057.985.985,0,0,0,.1.057,10.775,10.775,0,0,0,3.507,1.113q.174.114.406.285a.976.976,0,0,0,.145.114.943.943,0,0,1,.145.114q.289.228.565.485t.536.485q.2.228.406.428a3.977,3.977,0,0,1,.376.428.327.327,0,0,1,.116.228h-.087a12.446,12.446,0,0,1-2.42-.642,10.468,10.468,0,0,1-2.217-1.156,20.04,20.04,0,0,1-2.869-2.4q-.551-.542-1.043-1.1a9.815,9.815,0,0,1-.9-1.184,7.23,7.23,0,0,1-.869-1.7,10.036,10.036,0,0,1-.464-1.84,8.749,8.749,0,0,1-.073-1.94,7.354,7.354,0,0,1,.391-1.883,8.651,8.651,0,0,1,.768-1.7,6.086,6.086,0,0,1,1.174-1.441,5.389,5.389,0,0,1,1.1-.8.639.639,0,0,1-.087-.1.74.74,0,0,0-.087-.1q-.232-.285-.464-.557t-.464-.585c-.077-.095-.145-.185-.2-.271s-.116-.175-.174-.271a.728.728,0,0,1-.043-.1.914.914,0,0,0-.044-.1,1.911,1.911,0,0,1-.029-.742,1.4,1.4,0,0,1,.319-.685,2.093,2.093,0,0,1,.536-.471,4.652,4.652,0,0,1,.652-.328,6.447,6.447,0,0,1,1.261-.385q.652-.128,1.319-.3.319-.086.637-.185a3.654,3.654,0,0,0,.638-.271,3.826,3.826,0,0,0,.319-.214.623.623,0,0,0,.232-.3H682.839q-.116,0-.246-.171a2.513,2.513,0,0,0-.189-.228q-.2-.257-.391-.514t-.391-.542q-.2-.285-.377-.571t-.319-.571c-.058-.095-.106-.18-.145-.257-.077-.19-.1-.286-.058-.286h17.786a.352.352,0,0,1,.246.157c.087.1.149.176.188.214q.2.256.391.528t.391.556a12.983,12.983,0,0,1,.7,1.141" transform="translate(-617.894 584.198)" fill="#fff"/>
      <path id="path78" d="M825.181-574.731l.145.285q.116.257.058.257H822.6q.028.771.014,1.527t.015,1.527q0,.685-.015,1.369t.015,1.37q.028.657.072,1.341t.044,1.341q0,.742-.029,1.5a5.752,5.752,0,0,1-.261,1.5,3.71,3.71,0,0,1-.507,1.013,1.426,1.426,0,0,1-.942.585h-.029l1.681,1.826-.116.114-2.173-2.311a7.159,7.159,0,0,1-.9-.8l-.464-.456q-.231-.228-.464-.485-.115-.143-.174-.228l-.116-.171q-.058-.086-.029-.086a1.507,1.507,0,0,0,.724-.342,2.146,2.146,0,0,0,.478-.614,3.377,3.377,0,0,0,.29-.756q.1-.4.16-.77a11.317,11.317,0,0,0,.13-1.526q.014-.785-.043-1.555-.029-.571-.073-1.156t-.043-1.155v-2.6h-2.927a.349.349,0,0,1-.246-.157c-.087-.1-.149-.176-.188-.214a9.9,9.9,0,0,1-.783-1.084,12.891,12.891,0,0,1-.7-1.141c-.058-.095-.106-.18-.145-.257-.077-.19-.1-.286-.058-.286h5.013v-.271a1.356,1.356,0,0,0-.029-.271c0-.019.029-.014.087.014a1.49,1.49,0,0,1,.188.114c.068.048.15.1.247.157a3.264,3.264,0,0,0,.318.257h2.637c.077,0,.159.057.246.171a2.3,2.3,0,0,0,.188.229q.2.257.391.528t.391.556q.174.257.362.542a5.981,5.981,0,0,1,.333.571" transform="translate(-738.224 589.087)" fill="#fff"/>
      <path id="path80" d="M927.267-545.3c.117.133.146.228.087.285-.039.038-.12,0-.245-.114a1.194,1.194,0,0,1-.217-.228c-.117-.114-.229-.228-.333-.342s-.217-.228-.334-.342a1.011,1.011,0,0,1-.1-.057.91.91,0,0,0-.1-.057,5.215,5.215,0,0,0-1.159-.456,1.967,1.967,0,0,0-.391-.071q-.189-.015-.391-.043a6.754,6.754,0,0,0-1.811.071,9.776,9.776,0,0,0-1.724.471,19.5,19.5,0,0,0-1.985.913q-.971.514-1.985,1a16.565,16.565,0,0,1-1.985.77,10.692,10.692,0,0,1-2.1.428,13.492,13.492,0,0,1-4.115-.285,18.973,18.973,0,0,1-4.028-1.37,25.887,25.887,0,0,1-3.68-2.112q-1.855-1.313-3.565-2.753t-3.448-2.9q-.435-.371-.87-.713l-.869-.685-.869-.685a.083.083,0,0,1-.058-.028.247.247,0,0,0-.058-.043.215.215,0,0,1-.058-.043,1.576,1.576,0,0,0-.232-.143,1.5,1.5,0,0,0-.188-.157,1.736,1.736,0,0,0-.217-.128q-.869-.6-1.8-1.127a7,7,0,0,0-1.971-.756,4.922,4.922,0,0,0-1.434-.129,3.439,3.439,0,0,0-1.377.385c-.058.038-.14,0-.246-.114s-.179-.19-.217-.228q-.232-.228-.449-.485t-.449-.514a1.241,1.241,0,0,1-.246-.271q-.189-.242-.406-.514a5.682,5.682,0,0,1-.362-.5q-.144-.228-.087-.257.754-.4,1.464-.785t1.405-.785q2.521-1.483,4.811-3.138.55-.4,1.072-.785a9.173,9.173,0,0,0,.985-.842,3.29,3.29,0,0,0,.536-.685,3.378,3.378,0,0,0,.333-.77,5.84,5.84,0,0,0-1.913-.029,8.539,8.539,0,0,0-3.318,1.156,7.935,7.935,0,0,0-2.536,2.383q-.058.057-.246-.114c-.126-.114-.2-.18-.218-.2q-.232-.228-.463-.485l-.464-.513q-.406-.485-.811-1.056a.758.758,0,0,1-.145-.2q-.174-.228-.116-.314a8.083,8.083,0,0,1,2.753-2.511h-4.811c-.077,0-.159-.057-.246-.171a2.471,2.471,0,0,0-.188-.228,8.73,8.73,0,0,1-.782-1.056q-.2-.285-.377-.571t-.319-.571c-.058-.095-.106-.181-.145-.257-.077-.19-.1-.286-.058-.286h17.214a.313.313,0,0,1,.232.157,1.937,1.937,0,0,0,.174.214,5.362,5.362,0,0,1,.42.528q.188.271.391.556.174.286.348.556t.348.585l.116.285q.116.257.058.257h-5.3q.232.229.449.457t.449.457q.376.4.71.813t.652.87a4.651,4.651,0,0,1,.406.656,2.384,2.384,0,0,1,.232.742,1.948,1.948,0,0,1-.174,1.156,4.431,4.431,0,0,1-.667.984,8.253,8.253,0,0,1-1.014.9q-.551.414-1.1.813l-1.217.856q-.608.428-1.246.828-.464.314-.927.6t-.956.571a26.165,26.165,0,0,1,2.362,1.626q1.145.885,2.246,1.8t2.2,1.855q1.1.941,2.231,1.854.579.485,1.116.885t1.116.8q.579.4,1.159.77t1.188.713a25.524,25.524,0,0,0,2.478,1.17,17.515,17.515,0,0,0,2.594.827,14.687,14.687,0,0,0,2.391.371,11.474,11.474,0,0,0,2.42-.086,11.345,11.345,0,0,0,2.188-.557,18.892,18.892,0,0,0,2.072-.9q1.014-.514,2.029-1.041a11.2,11.2,0,0,1,2.115-.842,9.248,9.248,0,0,1,1.782-.285,5.817,5.817,0,0,1,1.811.171,6.807,6.807,0,0,1,.826.271,4,4,0,0,1,.768.414,7.687,7.687,0,0,1,.609.485q.289.257.58.542a18.845,18.845,0,0,1,1.825,2.226l.174.228" transform="translate(-794.839 584.198)" fill="#fff"/>
      <path id="path82" d="M1012.1-574.731l.145.285q.116.257.058.257h-2.782q.029.771.014,1.527t.015,1.527q0,.685-.015,1.369t.015,1.37q.028.657.072,1.341t.043,1.341q0,.742-.029,1.5a5.747,5.747,0,0,1-.261,1.5,3.709,3.709,0,0,1-.507,1.013,1.426,1.426,0,0,1-.942.585h-.029l1.681,1.826-.116.114-2.173-2.311a7.17,7.17,0,0,1-.9-.8l-.463-.456q-.232-.228-.464-.485-.116-.143-.174-.228l-.116-.171q-.057-.086-.029-.086a1.508,1.508,0,0,0,.725-.342,2.149,2.149,0,0,0,.478-.614,3.374,3.374,0,0,0,.29-.756q.1-.4.159-.77a11.327,11.327,0,0,0,.13-1.526q.014-.785-.043-1.555-.029-.571-.073-1.156t-.043-1.155v-2.6h-2.927a.349.349,0,0,1-.246-.157c-.087-.1-.149-.176-.188-.214a9.9,9.9,0,0,1-.782-1.084,12.852,12.852,0,0,1-.7-1.141c-.058-.095-.106-.18-.145-.257-.077-.19-.1-.286-.058-.286h5.014v-.271a1.347,1.347,0,0,0-.029-.271c0-.019.029-.014.087.014a1.517,1.517,0,0,1,.188.114c.067.048.149.1.246.157a3.269,3.269,0,0,0,.319.257h2.637q.116,0,.246.171a2.376,2.376,0,0,0,.188.229q.2.257.391.528t.391.556q.174.257.362.542a5.933,5.933,0,0,1,.333.571" transform="translate(-906.05 589.087)" fill="#fff"/>
      <path id="path84" d="M1072.492-563.793q-.406-.656-.826-1.3a11.525,11.525,0,0,0-.913-1.213,6.855,6.855,0,0,0,.058.9q.057.443.145.9.058.342.116.685a4.077,4.077,0,0,1,.058.685,3.636,3.636,0,0,1,0,.642,1.43,1.43,0,0,1-.174.585.98.98,0,0,1-.869.428q.2.143.377.271t.377.271c.019,0,.029,0,.029.014s.01.014.029.014h.29a1.5,1.5,0,0,0,.29-.029,2.626,2.626,0,0,0,1.159-.556q.493-.414.957-.87A11.725,11.725,0,0,1,1072.492-563.793Zm7.882-6.049c.058.114.106.209.145.285.077.171.1.257.058.257h-9.795v.457a3.619,3.619,0,0,1,.217.3,3.7,3.7,0,0,1,.189.328q.492.714.971,1.427a6.293,6.293,0,0,0,1.145,1.284,3.472,3.472,0,0,0,1.188.656c.077.019.135.1.174.228a1.811,1.811,0,0,0,.087.257q.2.657.348,1.284a9.335,9.335,0,0,1,.261,1.313.086.086,0,0,1,.058.028q.318.143.608.3t.58.328q.145.086.232.143c.058.038.111.076.159.114s.063.067.043.086a1.4,1.4,0,0,1-.174.2q-.319.314-.681.613a3.611,3.611,0,0,1-.8.5,2.356,2.356,0,0,1-1,.228,3.885,3.885,0,0,1-1.029-.143,6.781,6.781,0,0,1-.84-.257,15.784,15.784,0,0,1-1.623-.685q-.58-.314-1.159-.614a11.3,11.3,0,0,1-1.13-.67l-.463-.342-.464-.342a2.977,2.977,0,0,1-.261-.171l-.232-.171a.64.64,0,0,1-.145-.086l-.116-.057a1.06,1.06,0,0,1-.217-.143,2.085,2.085,0,0,0-.189-.143c-.058-.076-.048-.114.029-.114a.73.73,0,0,0,.406,0,.856.856,0,0,0,.609-.514,1.515,1.515,0,0,0,.145-.642q0-.328-.029-.642-.029-.342-.087-.685t-.116-.656a9.642,9.642,0,0,1-.174-1.5q-.029-.756,0-1.5h-2.84c-.077,0-.159-.057-.246-.171a2.474,2.474,0,0,0-.188-.228,8.753,8.753,0,0,1-.783-1.056q-.2-.285-.376-.571c-.116-.19-.222-.38-.319-.571q-.086-.142-.145-.257c-.077-.19-.1-.286-.058-.286h16.113a.351.351,0,0,1,.246.157c.087.1.149.176.188.214q.232.285.42.542t.362.542a13.074,13.074,0,0,1,.7,1.141" transform="translate(-960.697 584.198)" fill="#fff"/>
      <path id="path86" d="M1176.392-569.842l.116.285q.115.257.057.257H1170.6q.231.315.434.656l.406.685a4.343,4.343,0,0,1,.348.927,2.657,2.657,0,0,1,.058.956,2.273,2.273,0,0,1-.7,1.255,3.936,3.936,0,0,1-1.536.856q-.87.257-1.71.428-.928.2-1.9.414a6.321,6.321,0,0,0-1.811.7,4.468,4.468,0,0,0-1.261,1.213,3.161,3.161,0,0,0-.565,1.641v.271a.715.715,0,0,0,.058.271q.115.086.217.171a.865.865,0,0,0,.246.143,6.279,6.279,0,0,0,1.449.656c.155.039.3.076.435.114s.28.076.434.114a7.511,7.511,0,0,0,.782.071,4.371,4.371,0,0,0,.783-.043,5.953,5.953,0,0,0,1.971-.8,7.776,7.776,0,0,0,1.8-1.455,10.7,10.7,0,0,0,1.362-1.855c.019-.018.053-.009.1.029a1.071,1.071,0,0,1,.145.143c.048.057.111.124.189.2q.231.257.434.514t.406.542q.173.286.362.556t.362.557c.019.038.067.124.145.257s.1.228.058.285a9.4,9.4,0,0,1-2.84,3.11,7.721,7.721,0,0,1-1.594.784,4.4,4.4,0,0,1-1.768.243,6.076,6.076,0,0,1-1.666-.357,7.158,7.158,0,0,1-1.55-.785,7.935,7.935,0,0,1-1.594-1.4q-.348-.371-.667-.785t-.609-.813q-.348-.484-.666-.97a7.162,7.162,0,0,1-.551-1,4.541,4.541,0,0,1-.319-.8,2.857,2.857,0,0,1-.116-.8,3.37,3.37,0,0,1,.377-1.6,3.7,3.7,0,0,1,1.3-1.384,7.517,7.517,0,0,1,1.739-.784,17.591,17.591,0,0,1,1.9-.414,11.728,11.728,0,0,0,1.9-.471,4.449,4.449,0,0,0,.783-.328,3.979,3.979,0,0,0,.724-.485,2.477,2.477,0,0,0,.536-.642,1.8,1.8,0,0,0,.246-.8h-9.216q-.116,0-.246-.171a2.5,2.5,0,0,0-.188-.228,8.691,8.691,0,0,1-.782-1.056q-.2-.285-.377-.571t-.319-.571c-.058-.095-.106-.18-.145-.257-.077-.19-.1-.286-.058-.286h16.142a.312.312,0,0,1,.232.157,1.939,1.939,0,0,0,.174.214q.232.285.42.542t.391.542q.174.286.348.556t.347.585" transform="translate(-1046.775 584.198)" fill="#fff"/>
      <path id="path88" d="M595.44-568.84l.144.284c.077.17.1.255.058.255h-9.57a.289.289,0,0,0,.043.071.354.354,0,0,1,.043.071,1.448,1.448,0,0,1,.173.255c.076.132.1.227.058.284a5.686,5.686,0,0,0-.577,1.547,11.658,11.658,0,0,0-.23,1.632v.028a.119.119,0,0,0,.086-.028,11.972,11.972,0,0,0,2.421-.965,5.233,5.233,0,0,0,1.268-.766,2.505,2.505,0,0,0,.375-.4.968.968,0,0,0,.2-.483v-.085l-.029-.028a1.474,1.474,0,0,1-.144-.227.69.69,0,0,1-.086-.17c-.019-.057-.01-.094.029-.113.019-.019.058,0,.115.042s.105.09.144.128a1.843,1.843,0,0,0,.173.2q.23.284.447.568t.447.6q.2.284.4.6t.375.624a3.465,3.465,0,0,1,.173.326,1.4,1.4,0,0,1,.115.355.822.822,0,0,1-.072.553,1.547,1.547,0,0,1-.36.44,3.649,3.649,0,0,1-.562.454q-.3.2-.62.369t-.663.326q-.346.156-.692.3-.26.114-.519.213a3.55,3.55,0,0,1-.519.156q-.577.17-1.153.3t-1.153.27a1.452,1.452,0,0,0,.014.213,1.73,1.73,0,0,1,.014.241q.058.738.087,1.5a6.552,6.552,0,0,1-.115,1.5q-.086.284-.216.624a2.779,2.779,0,0,1-.332.624,1.3,1.3,0,0,1-.49.426.878.878,0,0,1-.663.028,1.718,1.718,0,0,1-.778-.454q-.317-.34-.605-.709t-.576-.766q-.231-.312-.447-.653t-.389-.681a6.858,6.858,0,0,1-.389-.922,3.026,3.026,0,0,1-.159-.979,6.359,6.359,0,0,1,.043-.738,2.582,2.582,0,0,1,.187-.709,2.424,2.424,0,0,1,1.182-1.078,6.131,6.131,0,0,1,1.441-.539q-.145-1.248-.173-2.441-.029-.482-.014-.965t.072-.965h-4.167q-.115,0-.231-.17a1.65,1.65,0,0,0-.173-.227q-.4-.482-.807-1.05l-.346-.568-.346-.568q-.057-.142-.115-.255-.115-.283-.058-.284h16.3a.349.349,0,0,1,.245.156c.086.1.149.175.188.213q.23.284.418.539t.36.539a12.919,12.919,0,0,1,.692,1.135" transform="translate(-524.96 583.285)" fill="#fff"/>
      <path id="path90" d="M659.18-573.7l.144.284q.115.256.058.255h-2.767q.028.766.015,1.518t.014,1.518q0,.681-.014,1.362t.014,1.362q.029.653.072,1.334t.043,1.334q0,.738-.029,1.49a5.715,5.715,0,0,1-.259,1.49,3.688,3.688,0,0,1-.5,1.008,1.42,1.42,0,0,1-.937.582H655l1.672,1.816-.115.114-2.162-2.3a7.141,7.141,0,0,1-.893-.794l-.461-.454q-.231-.227-.461-.483c-.077-.094-.134-.17-.173-.227l-.115-.17q-.057-.085-.029-.085a1.5,1.5,0,0,0,.721-.34,2.133,2.133,0,0,0,.476-.61,3.358,3.358,0,0,0,.288-.752q.1-.4.158-.766a11.262,11.262,0,0,0,.13-1.518q.014-.78-.043-1.547-.029-.567-.072-1.149t-.043-1.149v-2.583h-2.911a.348.348,0,0,1-.245-.156c-.086-.1-.149-.175-.187-.213a9.86,9.86,0,0,1-.778-1.079,12.83,12.83,0,0,1-.692-1.135c-.058-.094-.105-.179-.144-.255q-.115-.283-.058-.284h4.987v-.27a1.345,1.345,0,0,0-.029-.27c0-.019.029-.014.086.014a1.465,1.465,0,0,1,.187.113c.067.048.148.1.245.156a3.291,3.291,0,0,0,.317.255h2.623c.076,0,.158.057.245.17a2.4,2.4,0,0,0,.187.227q.2.256.389.525t.389.553q.173.256.36.539a5.9,5.9,0,0,1,.331.568" transform="translate(-589.23 588.15)" fill="#fff"/>
      <path id="path92" d="M715.68-258.41l.288-.284c.085.084.2.188.334.313s.349.291.634.5a1.325,1.325,0,0,0,.623.313,1.547,1.547,0,0,0,.8-.313,5.78,5.78,0,0,0,.795-.618l.311-.317.68.7c-.032.037-.076.085-.133.142s-.178.156-.362.3a5.955,5.955,0,0,1-.547.38,3.63,3.63,0,0,1-.657.3,2.25,2.25,0,0,1-.744.136,1.491,1.491,0,0,1-.824-.391,6.537,6.537,0,0,1-.846-.778Zm-2.027,3.121-.438-1.089h6.545v1.089h-.749v6.523l-1.428-.636v-5.887h-1.43v6.523l-1.428-.636v-3.028a2.611,2.611,0,0,1-.276.073,1.164,1.164,0,0,1-.282.023c-.1,0-.18-.007-.248-.012a1.184,1.184,0,0,1-.26-.05l-.23-.069a1.941,1.941,0,0,1-.237-.1l-.213-.1c-.035-.016-.11-.053-.225-.113s-.181-.095-.2-.1l-.057.044.346.227c.046.03.151.108.317.233a2.186,2.186,0,0,1,.356.317,4.135,4.135,0,0,1,.259.351,1.9,1.9,0,0,1,.231.459.954.954,0,0,1-.167.886,2.4,2.4,0,0,1-.863.76,4.087,4.087,0,0,1-1.165.414,1.456,1.456,0,0,1-1.065-.153,12.587,12.587,0,0,1-2.881-3.324l.288-.2c.016.016.09.113.225.295s.231.307.288.375l.322.38a4.665,4.665,0,0,0,.381.409l.4.357a2.342,2.342,0,0,0,.449.329c.13.067.284.142.461.221a1.5,1.5,0,0,0,.5.136,2.21,2.21,0,0,0,.507-.029,1.672,1.672,0,0,0,.53-.182.91.91,0,0,0,.57-.9,1.854,1.854,0,0,0-.708-1.106,3.607,3.607,0,0,1-1.3.307l-.621-1.056a4.283,4.283,0,0,0,1.82-.533q.645-.409.437-.908a.906.906,0,0,0-.564-.563,1.3,1.3,0,0,0-.858.062,6.643,6.643,0,0,0-.772.34c-.2.107-.4.227-.606.363l-.7-.987.218-.159c.154-.1.272-.172.356-.221l.392-.226a2.247,2.247,0,0,1,.455-.21,4.436,4.436,0,0,1,.432-.1,1.043,1.043,0,0,1,.449.006.974.974,0,0,1,.38.188q1.026.849,1.545,1.361a.976.976,0,0,1,.254.941,1.848,1.848,0,0,1-.657.976,2.212,2.212,0,0,0,1.993-.659v-1.633h-1.071" transform="translate(-642.237 302.46)" fill="#fff"/>
      <path id="path94" d="M821.7-257.9v-1.089h.795a2.288,2.288,0,0,1-.426-.84,1.318,1.318,0,0,1-.023-.806q.115-.317,1.67-.7a11.088,11.088,0,0,1,2.051-.386,10.677,10.677,0,0,1,2.386.726q1.936.727,3.336,1.31t2.149.914l-.968-.012a29.245,29.245,0,0,0-7.317-1.747q-1.877-.079-1.728.874a1.792,1.792,0,0,0,.265.67h1v1.089H824v6.579l-1.428-.636V-257.9H821.7" transform="translate(-744.437 305.074)" fill="#fff"/>
      <path id="path96" d="M857.511-232.988l2.12-.124v-.624h-6l.022,3.573a1.146,1.146,0,0,0,1.165.2,2.861,2.861,0,0,0,1.313-.828,3.285,3.285,0,0,1,.485-1.446Q857.037-232.942,857.511-232.988Zm3.4.863h-2.235q-.542,0-.852.726a2.376,2.376,0,0,0-.1,1.645,1.334,1.334,0,0,0,1.221,1.054h.034a1.919,1.919,0,0,0,.582-.04,1.245,1.245,0,0,0,.518-.266c.166-.137.29-.247.375-.33a5.891,5.891,0,0,0,.392-.459c.177-.224.288-.362.335-.415l.979.851q-.311.42-.519.664a4.655,4.655,0,0,1-.524.517,2.311,2.311,0,0,1-.7.414,3.336,3.336,0,0,1-.852.187,1.844,1.844,0,0,1-1.326-.488,12.638,12.638,0,0,1-1.6-1.441,2.83,2.83,0,0,1-1.695.9,1.234,1.234,0,0,1-.38-.063,1.627,1.627,0,0,1-.415-.21c-.145-.1-.272-.186-.38-.266a4.087,4.087,0,0,1-.409-.363c-.166-.162-.288-.284-.369-.363s-.208-.212-.381-.4-.282-.3-.328-.345a28.266,28.266,0,0,1-.068-3.12h-.726v-1.089h11.153v1.089h-1.728v1.611" transform="translate(-771.177 280.906)" fill="#fff"/>
      <path id="path98" d="M958.052-257.912V-259h.784a2.1,2.1,0,0,1-.455-.726,1.059,1.059,0,0,1-.04-.7,2.226,2.226,0,0,1,.813-.846,1.874,1.874,0,0,1,1.007-.459,7.047,7.047,0,0,1,2.04,1.022q1.625,1,2.9,1.928l-.738-.012q-2.811-1.769-4.09-1.565-.588.1-.61.578a1.022,1.022,0,0,0,.369.784h1.209v1.089h-.886v6.579l-1.428-.636v-5.943h-.877" transform="translate(-866.827 305.082)" fill="#fff"/>
      <path id="path100" d="M996.1-234.82l-.449-1.089h3.791v1.089H998.6v6.556l-1.429-.635v-5.922Zm-1.556,2.427a3.377,3.377,0,0,0,.276-1.475q0-1.066-.668-1.18a1.171,1.171,0,0,0-1,.351.869.869,0,0,0-.357.931.722.722,0,0,0,.161.273,5.592,5.592,0,0,0,.812.664,3.414,3.414,0,0,0,.778.436Zm1.786,3.937-.449.465q-1.13-1.022-2.235-1.917c-.054,0-.164.007-.328.023l-.375.034q-.126.011-.351.011a2.8,2.8,0,0,1-.357-.017,1.443,1.443,0,0,1-.271-.062.648.648,0,0,1-.218-.113,1.759,1.759,0,0,1-.657-1.055q0-.135.271-.4a1.309,1.309,0,0,1,.558-.34,11.326,11.326,0,0,1,1.187.873,2.784,2.784,0,0,0,1.3-1.054,5.691,5.691,0,0,1-1.775-1.106q-1.072-.891-1.071-1.367a1.094,1.094,0,0,1,.271-.681,2.144,2.144,0,0,1,.639-.545,2.976,2.976,0,0,1,.761-.295.8.8,0,0,1,.646.079,5.868,5.868,0,0,1,1.181.959,3.377,3.377,0,0,1,.72.925,3.109,3.109,0,0,1-.1,2.235,3.028,3.028,0,0,1-1.5,1.713q1.681,1.338,2.155,1.634" transform="translate(-896.501 281.99)" fill="#fff"/>
      <path id="path102" d="M1072.334-230.424a1.847,1.847,0,0,0,1.5.664,2.6,2.6,0,0,0,1.412-.59,4.117,4.117,0,0,0,1.054-1.3v-2.087h-2.914a1.781,1.781,0,0,1,.749,1.1.772.772,0,0,1-.023.261,1.408,1.408,0,0,1-.087.25,1.334,1.334,0,0,1-.172.266c-.081.1-.15.188-.207.256a3.815,3.815,0,0,1-.282.284c-.131.12-.233.212-.305.272s-.193.162-.358.307S1072.411-230.492,1072.334-230.424Zm3.964,2.61V-229.7a2.608,2.608,0,0,1-1.854,1.089,2.4,2.4,0,0,1-1.106-.334,5.814,5.814,0,0,1-1.112-.772q-.489-.436-.835-.811a1.846,1.846,0,0,1-.38-.5c-.009-.037.05-.109.172-.215s.287-.237.49-.392.355-.278.455-.369a2.3,2.3,0,0,0,.767-.987.754.754,0,0,0-.271-.748h-1.971v-1.089h7.951v1.089h-.877v6.557l-1.429-.635" transform="translate(-967.929 280.906)" fill="#fff"/>
      <path id="path104" d="M1147.594-231.342q-1.13-.011-1.267.487a.616.616,0,0,0,.276.647.636.636,0,0,0,.773.114q.438-.251.426-1.248Zm3.711-1.056v1.1l-2.846-.034a1.581,1.581,0,0,1,.293,1.4,1.51,1.51,0,0,1-.778.827q-.553.267-.829.041-1.394-1.169-1.452-1.226a1.3,1.3,0,0,1-.4-1.2,1,1,0,0,1,.691-.908Zm-6.994-1.338v-1.089h7.916v1.089h-7.916" transform="translate(-1034.213 280.906)" fill="#fff"/>
      <path id="path106" d="M1203.424-233.736a3.535,3.535,0,0,1,.593,1.5,2.189,2.189,0,0,1-.247,1.378,2.107,2.107,0,0,0,.755.165,1.882,1.882,0,0,0,.892-.215,1.887,1.887,0,0,0,.8-.743v-2.087Zm2.789,5.922v-2.281a3,3,0,0,1-1.233.351,3.478,3.478,0,0,1-1.486-.714,2.744,2.744,0,0,1-1.257.77,4.175,4.175,0,0,0,.94,1.01,15.779,15.779,0,0,0,1.422,1.089l-.322.419a21.842,21.842,0,0,1-2.247-1.519,5.7,5.7,0,0,1-1.844-2.405,3.42,3.42,0,0,1,.53-1.043c.069-.083.2-.079.38.012a2.017,2.017,0,0,1,.5.34.564.564,0,0,1,.1.2,3.1,3.1,0,0,1,.081.351c.027.148.056.274.086.38a1.441,1.441,0,0,0,.72-.476,1.4,1.4,0,0,0,.3-.743,3.3,3.3,0,0,0-.023-.828,4.5,4.5,0,0,0-.213-.833h-2.765v-1.089h8.388v1.089h-.623v6.557l-1.428-.635" transform="translate(-1084.041 280.906)" fill="#fff"/>
      <path id="path108" d="M93.909-675.172c-1.456,6.329-5.6,11.75-12.5,11.75s-11.359-4.662-12.169-11.1a16.663,16.663,0,0,1,.1-5.53h.081c.533-2.275,2.643-3.843,4.677-4.784a17.531,17.531,0,0,1,7.314-1.182c7.093,0,12.7,1.2,12.878,6.887a.92.92,0,0,0,.081.367A16.5,16.5,0,0,1,93.909-675.172Zm39.655-11.834a.54.54,0,0,0-.464-.505c-9.121-1.362-21.857-.14-24.5.984-2.461,1.048-4.395,2.706-5,5.109a9.916,9.916,0,0,0-1.256-.61,14.566,14.566,0,0,0-5.707,0,9.918,9.918,0,0,0-1.256.61c-.6-2.4-2.537-4.061-5-5.109-2.639-1.124-15.375-2.346-24.5-.984a.54.54,0,0,0-.464.505c-.049,1.04-.1,1.935-.147,2.974a.538.538,0,0,0,.37.54,3.233,3.233,0,0,1,1.313,1,3.49,3.49,0,0,1,.675,1.011,2.374,2.374,0,0,1,.21.914.542.542,0,0,0,.553.516h.462a17.3,17.3,0,0,0-.08,5.586,13.451,13.451,0,0,0,3.937,8.236,12.336,12.336,0,0,0,8.687,3.262,11.749,11.749,0,0,0,8.623-3.641,17.815,17.815,0,0,0,4.322-8.46,17.139,17.139,0,0,0,.462-3.464,1.629,1.629,0,0,0,.711-.379c.141-.113.138-.48.136-.526a4.41,4.41,0,0,1,1.666-.97,8.472,8.472,0,0,1,4.331,0,4.41,4.41,0,0,1,1.666.97c0,.046,0,.413.136.526a1.628,1.628,0,0,0,.711.379,17.139,17.139,0,0,0,.462,3.464,17.814,17.814,0,0,0,4.322,8.46,11.749,11.749,0,0,0,8.623,3.641q.65,0,1.278-.054-.244-.2-.473-.421c-.265.014-.532.024-.8.024-6.9,0-11.042-5.421-12.5-11.75a16.5,16.5,0,0,1-.461-3.595.921.921,0,0,0,.081-.367c.183-5.69,5.785-6.887,12.878-6.887a17.529,17.529,0,0,1,7.314,1.182c2.034.941,4.144,2.509,4.678,4.784h1.016a.542.542,0,0,0,.553-.516,2.373,2.373,0,0,1,.21-.914,3.492,3.492,0,0,1,.675-1.011,3.235,3.235,0,0,1,1.314-1,.538.538,0,0,0,.37-.54c-.049-1.039-.1-1.934-.147-2.974" transform="translate(-65.281 688.113)" fill="#fff"/>
    </g>
  </g>
</svg>
